<svg xmlns="http://www.w3.org/2000/svg" xmlns:xlink="http://www.w3.org/1999/xlink" zoomAndPan="magnify" preserveAspectRatio="xMidYMid meet" version="1.0" viewBox="17.48 62 340.03 251"><defs><clipPath id="cec55a99f2"><path d="M 17.476562 62 L 357.226562 62 L 357.226562 313 L 17.476562 313 Z M 17.476562 62 " clip-rule="nonzero"/></clipPath><clipPath id="34b6ab0a3c"><path d="M 59.128906 63.21875 L 84.289062 104.4375 L 84.664062 104.8125 C 119.140625 126.445312 152.316406 147.894531 186.328125 170.277344 L 187.351562 169.066406 L 133.304688 110.78125 L 133.210938 110.6875 L 88.949219 75.996094 L 88.761719 75.902344 L 60.25 62.007812 Z M 30.988281 235.371094 L 42.636719 236.207031 L 28.9375 218.398438 L 27.355469 219.050781 L 28.753906 230.800781 C 28.753906 231.078125 28.660156 231.453125 28.285156 231.546875 L 17.476562 236.675781 L 17.941406 238.167969 L 30.617188 235.460938 C 30.707031 235.460938 30.800781 235.460938 30.894531 235.460938 Z M 45.992188 248.707031 L 29.871094 253.089844 L 29.21875 253.554688 L 23.441406 262.226562 L 24.464844 263.625 L 36.765625 259.988281 L 37.230469 259.710938 L 46.921875 250.195312 L 46.085938 248.796875 Z M 71.523438 237.140625 L 49.347656 233.316406 L 48.601562 234.808594 L 57.546875 242.457031 C 57.824219 242.644531 57.917969 243.015625 57.824219 243.390625 L 53.351562 254.488281 L 54.75 255.234375 L 62.296875 244.601562 C 62.296875 244.507812 62.390625 244.507812 62.484375 244.414062 L 71.617188 237.140625 Z M 91.929688 222.5 L 41.703125 216.90625 L 41.332031 218.398438 L 74.132812 229.496094 L 74.785156 229.496094 L 92.023438 224.085938 L 91.839844 222.5 Z M 99.292969 218.675781 L 114.949219 220.636719 C 120.074219 215.226562 123.894531 211.496094 129.390625 206.460938 L 128.644531 204.96875 L 111.5 207.484375 L 111.128906 207.578125 L 102.367188 212.335938 L 101.902344 212.800781 L 99.292969 218.582031 Z M 74.320312 251.035156 L 94.726562 244.976562 L 95.191406 244.695312 L 111.21875 228.933594 L 110.382812 227.535156 L 83.636719 234.808594 L 82.984375 235.277344 L 73.292969 249.730469 L 74.320312 251.128906 Z M 45.152344 272.765625 L 53.726562 273.882812 C 56.242188 271.179688 58.199219 269.316406 60.902344 266.796875 L 60.15625 265.304688 L 51.769531 266.515625 L 51.394531 266.609375 L 47.015625 268.941406 L 46.550781 269.40625 L 45.058594 272.671875 Z M 62.578125 283.117188 L 36.207031 280.132812 L 35.835938 281.625 L 53.074219 287.5 L 53.726562 287.5 L 62.671875 284.703125 L 62.484375 283.117188 Z M 63.324219 274.257812 L 82.054688 268.941406 L 82.613281 268.570312 L 88.761719 260.734375 L 87.738281 259.523438 L 62.765625 272.859375 Z M 103.765625 283.117188 L 101.34375 284.421875 C 101.25 284.421875 101.15625 284.515625 101.0625 284.515625 L 80.933594 286.566406 L 80.28125 286.941406 L 57.546875 311.558594 L 58.476562 312.957031 L 96.777344 298.316406 L 97.148438 298.132812 L 123.894531 274.535156 L 122.960938 273.230469 L 104.699219 282.742188 C 104.511719 282.835938 104.324219 282.835938 104.136719 282.835938 C 104.046875 283.023438 103.953125 283.210938 103.765625 283.304688 Z M 103.953125 281.25 L 134.703125 261.761719 L 134.050781 260.269531 L 109.636719 266.796875 L 109.449219 266.796875 L 92.675781 267.730469 L 81.308594 283.210938 L 102.925781 281.71875 L 103.113281 281.625 C 103.300781 281.53125 103.484375 281.53125 103.671875 281.625 C 103.765625 281.4375 103.859375 281.34375 103.953125 281.25 Z M 188.003906 260.082031 L 138.988281 272.390625 L 139.175781 273.882812 L 173.746094 272.859375 L 174.398438 272.671875 L 188.65625 261.574219 L 187.910156 260.082031 Z M 184.277344 221.566406 L 158.09375 218.488281 L 157.90625 218.488281 L 141.410156 212.707031 L 100.132812 251.597656 L 100.875 253.089844 L 139.546875 244.042969 L 139.734375 243.949219 L 184.554688 223.246094 Z M 160.980469 211.308594 L 185.207031 215.132812 L 185.769531 215.132812 L 199.28125 210.75 L 199.1875 209.070312 L 149.054688 200.773438 L 148.402344 202.261719 L 160.609375 211.03125 L 161.074219 211.214844 Z M 194.433594 248.796875 L 195.457031 224.367188 L 148.867188 246.652344 L 149.054688 248.332031 L 171.976562 253.835938 L 172.441406 253.835938 Z M 216.332031 234.0625 L 222.390625 212.429688 L 220.992188 211.589844 L 219.5 213.082031 C 219.40625 213.175781 219.3125 213.175781 219.3125 213.269531 C 219.3125 213.359375 219.222656 213.453125 219.128906 213.453125 L 201.515625 231.265625 L 201.234375 231.917969 L 200.023438 249.359375 L 201.609375 250.011719 L 216.238281 234.53125 L 216.519531 234.0625 Z M 250.15625 203.570312 L 232.640625 217 L 232.265625 217.464844 L 221.828125 242.550781 C 221.738281 242.644531 221.738281 242.738281 221.644531 242.828125 L 189.867188 268.753906 L 190.707031 270.152344 L 224.71875 256.074219 L 225.089844 255.792969 L 253.605469 224.738281 Z M 253.328125 181.5625 L 248.199219 159.832031 L 246.523438 159.738281 L 227.792969 210.75 L 229.097656 211.777344 L 248.761719 197.972656 L 249.132812 197.414062 L 253.328125 182.027344 L 253.328125 181.46875 Z M 295.910156 155.820312 L 357.507812 133.160156 L 357.132812 131.667969 L 291.066406 144.445312 Z M 301.503906 159.832031 L 269.167969 181.28125 L 268.144531 215.039062 L 269.726562 215.414062 L 281.746094 185.757812 C 281.746094 185.664062 281.839844 185.570312 281.839844 185.570312 L 302.527344 161.136719 L 301.503906 159.925781 Z M 266.652344 154.050781 L 262.832031 160.296875 C 262.738281 160.484375 262.644531 160.578125 262.457031 160.578125 L 258.730469 161.976562 C 258.453125 162.070312 258.078125 162.070312 257.890625 161.789062 C 257.613281 161.511719 257.613281 161.042969 257.890625 160.671875 C 258.265625 160.296875 258.636719 159.738281 258.917969 159.179688 C 259.105469 158.621094 259.289062 158.058594 259.289062 157.40625 C 259.289062 156.753906 259.195312 156.195312 258.917969 155.636719 C 258.730469 155.074219 258.359375 154.609375 257.890625 154.144531 C 257.519531 153.769531 256.960938 153.398438 256.402344 153.117188 C 255.84375 152.929688 255.28125 152.746094 254.632812 152.746094 C 253.980469 152.746094 253.417969 152.839844 252.859375 153.117188 C 252.300781 153.304688 251.835938 153.675781 251.371094 154.144531 C 250.996094 154.515625 250.625 155.074219 250.34375 155.636719 C 250.15625 156.195312 249.972656 156.753906 249.972656 157.40625 C 249.972656 158.058594 250.066406 158.621094 250.34375 159.179688 C 250.53125 159.738281 250.902344 160.207031 251.371094 160.671875 C 251.742188 161.042969 252.207031 161.417969 252.675781 161.605469 C 253.140625 161.789062 253.699219 161.976562 254.257812 161.976562 C 254.539062 161.976562 254.816406 162.164062 254.910156 162.441406 C 255.097656 162.816406 254.816406 163.28125 254.445312 163.46875 L 253.699219 163.75 L 258.453125 179.789062 C 266.277344 172.609375 273.640625 165.335938 281.28125 157.875 L 284.078125 155.074219 L 283.425781 153.492188 L 266.558594 153.863281 Z M 235.902344 136.984375 L 260.410156 143.886719 L 260.875 143.886719 L 285.007812 139.78125 L 285.101562 138.101562 L 255.375 130.828125 L 254.910156 130.828125 L 236.085938 135.304688 L 236.085938 136.984375 Z M 210.835938 168.691406 L 246.058594 147.054688 L 228.910156 141.832031 L 216.796875 152.464844 L 216.519531 152.839844 L 209.53125 167.480469 L 210.742188 168.597656 Z M 213.910156 178.015625 C 213.628906 178.203125 213.257812 178.203125 212.976562 178.015625 L 186.605469 157.96875 L 185.488281 159.085938 L 207.574219 185.664062 C 207.574219 185.757812 207.664062 185.757812 207.664062 185.851562 L 218.660156 211.214844 L 242.050781 160.484375 L 240.746094 159.367188 L 213.816406 177.921875 Z M 128.273438 97.070312 C 153.058594 119.078125 176.914062 140.15625 204.125 160.207031 L 205.335938 159.085938 L 195.085938 143.699219 L 194.804688 143.417969 L 110.101562 79.074219 L 109.171875 80.191406 C 115.507812 85.785156 121.9375 91.476562 128.273438 97.070312 Z M 203.472656 202.355469 L 126.316406 166.359375 L 125.199219 167.574219 L 141.039062 192.84375 L 203.007812 203.753906 L 203.472656 202.261719 Z M 127.339844 137.449219 L 95.660156 122.808594 L 94.632812 124.113281 L 118.300781 156.195312 L 118.769531 156.566406 L 202.355469 194.148438 L 203.101562 192.84375 L 127.527344 137.636719 L 127.339844 137.542969 Z M 127.339844 137.449219 " clip-rule="evenodd"/></clipPath><linearGradient x1="38.578306" gradientTransform="matrix(9.318431, -0.000000000000000072, 0.000000000000000072, 9.325609, 17.476807, 62.006529)" y1="4.174408" x2="-1.274775" gradientUnits="userSpaceOnUse" y2="24.397879" id="a100a9724a"><stop stop-opacity="1" stop-color="rgb(100%, 87.098694%, 34.899902%)" offset="0"/><stop stop-opacity="1" stop-color="rgb(100%, 87.098694%, 34.899902%)" offset="0.125"/><stop stop-opacity="1" stop-color="rgb(100%, 87.098694%, 34.899902%)" offset="0.1875"/><stop stop-opacity="1" stop-color="rgb(100%, 87.098694%, 34.899902%)" offset="0.21875"/><stop stop-opacity="1" stop-color="rgb(100%, 87.098694%, 34.899902%)" offset="0.234375"/><stop stop-opacity="1" stop-color="rgb(100%, 86.997986%, 34.864807%)" offset="0.242188"/><stop stop-opacity="1" stop-color="rgb(100%, 86.405945%, 34.666443%)" offset="0.246094"/><stop stop-opacity="1" stop-color="rgb(100%, 85.913086%, 34.501648%)" offset="0.25"/><stop stop-opacity="1" stop-color="rgb(100%, 85.420227%, 34.336853%)" offset="0.253906"/><stop stop-opacity="1" stop-color="rgb(100%, 84.928894%, 34.172058%)" offset="0.257812"/><stop stop-opacity="1" stop-color="rgb(100%, 84.436035%, 34.007263%)" offset="0.261719"/><stop stop-opacity="1" stop-color="rgb(100%, 83.944702%, 33.842468%)" offset="0.265625"/><stop stop-opacity="1" stop-color="rgb(100%, 83.451843%, 33.677673%)" offset="0.269531"/><stop stop-opacity="1" stop-color="rgb(100%, 82.96051%, 33.512878%)" offset="0.273437"/><stop stop-opacity="1" stop-color="rgb(100%, 82.467651%, 33.348083%)" offset="0.277344"/><stop stop-opacity="1" stop-color="rgb(100%, 81.976318%, 33.183289%)" offset="0.28125"/><stop stop-opacity="1" stop-color="rgb(100%, 81.483459%, 33.018494%)" offset="0.285156"/><stop stop-opacity="1" stop-color="rgb(100%, 80.992126%, 32.853699%)" offset="0.289062"/><stop stop-opacity="1" stop-color="rgb(100%, 80.499268%, 32.688904%)" offset="0.292969"/><stop stop-opacity="1" stop-color="rgb(100%, 80.007935%, 32.524109%)" offset="0.296875"/><stop stop-opacity="1" stop-color="rgb(100%, 79.515076%, 32.357788%)" offset="0.300781"/><stop stop-opacity="1" stop-color="rgb(100%, 79.023743%, 32.192993%)" offset="0.304687"/><stop stop-opacity="1" stop-color="rgb(100%, 78.530884%, 32.028198%)" offset="0.308594"/><stop stop-opacity="1" stop-color="rgb(100%, 78.039551%, 31.863403%)" offset="0.3125"/><stop stop-opacity="1" stop-color="rgb(100%, 77.546692%, 31.698608%)" offset="0.316406"/><stop stop-opacity="1" stop-color="rgb(100%, 77.055359%, 31.533813%)" offset="0.320312"/><stop stop-opacity="1" stop-color="rgb(100%, 76.5625%, 31.369019%)" offset="0.324219"/><stop stop-opacity="1" stop-color="rgb(100%, 76.069641%, 31.204224%)" offset="0.328125"/><stop stop-opacity="1" stop-color="rgb(100%, 75.576782%, 31.039429%)" offset="0.332031"/><stop stop-opacity="1" stop-color="rgb(100%, 75.085449%, 30.874634%)" offset="0.335937"/><stop stop-opacity="1" stop-color="rgb(100%, 74.59259%, 30.709839%)" offset="0.339844"/><stop stop-opacity="1" stop-color="rgb(100%, 74.101257%, 30.545044%)" offset="0.34375"/><stop stop-opacity="1" stop-color="rgb(100%, 73.608398%, 30.380249%)" offset="0.347656"/><stop stop-opacity="1" stop-color="rgb(100%, 73.117065%, 30.215454%)" offset="0.351562"/><stop stop-opacity="1" stop-color="rgb(100%, 72.624207%, 30.049133%)" offset="0.355469"/><stop stop-opacity="1" stop-color="rgb(100%, 72.132874%, 29.884338%)" offset="0.359375"/><stop stop-opacity="1" stop-color="rgb(100%, 71.640015%, 29.719543%)" offset="0.363281"/><stop stop-opacity="1" stop-color="rgb(100%, 71.148682%, 29.554749%)" offset="0.367187"/><stop stop-opacity="1" stop-color="rgb(100%, 70.655823%, 29.389954%)" offset="0.371094"/><stop stop-opacity="1" stop-color="rgb(100%, 70.16449%, 29.225159%)" offset="0.375"/><stop stop-opacity="1" stop-color="rgb(100%, 69.671631%, 29.060364%)" offset="0.378906"/><stop stop-opacity="1" stop-color="rgb(100%, 69.180298%, 28.895569%)" offset="0.382812"/><stop stop-opacity="1" stop-color="rgb(100%, 68.687439%, 28.730774%)" offset="0.386719"/><stop stop-opacity="1" stop-color="rgb(100%, 68.196106%, 28.565979%)" offset="0.390625"/><stop stop-opacity="1" stop-color="rgb(100%, 67.703247%, 28.401184%)" offset="0.394531"/><stop stop-opacity="1" stop-color="rgb(100%, 67.211914%, 28.236389%)" offset="0.398437"/><stop stop-opacity="1" stop-color="rgb(100%, 66.719055%, 28.071594%)" offset="0.402344"/><stop stop-opacity="1" stop-color="rgb(100%, 66.227722%, 27.906799%)" offset="0.40625"/><stop stop-opacity="1" stop-color="rgb(100%, 65.734863%, 27.742004%)" offset="0.410156"/><stop stop-opacity="1" stop-color="rgb(100%, 65.242004%, 27.577209%)" offset="0.414062"/><stop stop-opacity="1" stop-color="rgb(100%, 64.749146%, 27.410889%)" offset="0.417969"/><stop stop-opacity="1" stop-color="rgb(100%, 64.257812%, 27.246094%)" offset="0.421875"/><stop stop-opacity="1" stop-color="rgb(100%, 63.764954%, 27.081299%)" offset="0.425781"/><stop stop-opacity="1" stop-color="rgb(100%, 63.273621%, 26.916504%)" offset="0.429687"/><stop stop-opacity="1" stop-color="rgb(100%, 62.780762%, 26.751709%)" offset="0.433594"/><stop stop-opacity="1" stop-color="rgb(100%, 62.289429%, 26.586914%)" offset="0.4375"/><stop stop-opacity="1" stop-color="rgb(100%, 61.79657%, 26.422119%)" offset="0.441406"/><stop stop-opacity="1" stop-color="rgb(100%, 61.305237%, 26.257324%)" offset="0.445312"/><stop stop-opacity="1" stop-color="rgb(100%, 60.812378%, 26.092529%)" offset="0.449219"/><stop stop-opacity="1" stop-color="rgb(100%, 60.321045%, 25.927734%)" offset="0.453125"/><stop stop-opacity="1" stop-color="rgb(100%, 59.828186%, 25.762939%)" offset="0.457031"/><stop stop-opacity="1" stop-color="rgb(100%, 59.336853%, 25.598145%)" offset="0.460937"/><stop stop-opacity="1" stop-color="rgb(100%, 58.843994%, 25.43335%)" offset="0.464844"/><stop stop-opacity="1" stop-color="rgb(100%, 58.352661%, 25.268555%)" offset="0.46875"/><stop stop-opacity="1" stop-color="rgb(100%, 57.859802%, 25.10376%)" offset="0.472656"/><stop stop-opacity="1" stop-color="rgb(100%, 57.368469%, 24.938965%)" offset="0.476562"/><stop stop-opacity="1" stop-color="rgb(100%, 56.87561%, 24.772644%)" offset="0.480469"/><stop stop-opacity="1" stop-color="rgb(100%, 56.384277%, 24.607849%)" offset="0.484375"/><stop stop-opacity="1" stop-color="rgb(100%, 55.891418%, 24.443054%)" offset="0.488281"/><stop stop-opacity="1" stop-color="rgb(100%, 55.39856%, 24.278259%)" offset="0.492187"/><stop stop-opacity="1" stop-color="rgb(100%, 54.905701%, 24.113464%)" offset="0.496094"/><stop stop-opacity="1" stop-color="rgb(100%, 54.414368%, 23.948669%)" offset="0.5"/><stop stop-opacity="1" stop-color="rgb(100%, 53.921509%, 23.783875%)" offset="0.503906"/><stop stop-opacity="1" stop-color="rgb(100%, 53.430176%, 23.61908%)" offset="0.507812"/><stop stop-opacity="1" stop-color="rgb(100%, 52.937317%, 23.454285%)" offset="0.511719"/><stop stop-opacity="1" stop-color="rgb(100%, 52.445984%, 23.28949%)" offset="0.515625"/><stop stop-opacity="1" stop-color="rgb(100%, 51.953125%, 23.124695%)" offset="0.519531"/><stop stop-opacity="1" stop-color="rgb(100%, 51.461792%, 22.9599%)" offset="0.523438"/><stop stop-opacity="1" stop-color="rgb(100%, 50.968933%, 22.795105%)" offset="0.527344"/><stop stop-opacity="1" stop-color="rgb(100%, 50.4776%, 22.63031%)" offset="0.53125"/><stop stop-opacity="1" stop-color="rgb(100%, 49.984741%, 22.465515%)" offset="0.535156"/><stop stop-opacity="1" stop-color="rgb(100%, 49.493408%, 22.30072%)" offset="0.539062"/><stop stop-opacity="1" stop-color="rgb(100%, 49.000549%, 22.134399%)" offset="0.542969"/><stop stop-opacity="1" stop-color="rgb(100%, 48.509216%, 21.969604%)" offset="0.546875"/><stop stop-opacity="1" stop-color="rgb(100%, 48.016357%, 21.80481%)" offset="0.550781"/><stop stop-opacity="1" stop-color="rgb(100%, 47.525024%, 21.640015%)" offset="0.554688"/><stop stop-opacity="1" stop-color="rgb(100%, 47.032166%, 21.47522%)" offset="0.558594"/><stop stop-opacity="1" stop-color="rgb(100%, 46.540833%, 21.310425%)" offset="0.5625"/><stop stop-opacity="1" stop-color="rgb(100%, 46.047974%, 21.14563%)" offset="0.566406"/><stop stop-opacity="1" stop-color="rgb(100%, 45.555115%, 20.980835%)" offset="0.570312"/><stop stop-opacity="1" stop-color="rgb(100%, 45.062256%, 20.81604%)" offset="0.574219"/><stop stop-opacity="1" stop-color="rgb(100%, 44.570923%, 20.651245%)" offset="0.578125"/><stop stop-opacity="1" stop-color="rgb(100%, 44.078064%, 20.48645%)" offset="0.582031"/><stop stop-opacity="1" stop-color="rgb(100%, 43.586731%, 20.321655%)" offset="0.585938"/><stop stop-opacity="1" stop-color="rgb(100%, 43.093872%, 20.15686%)" offset="0.589844"/><stop stop-opacity="1" stop-color="rgb(100%, 42.602539%, 19.992065%)" offset="0.59375"/><stop stop-opacity="1" stop-color="rgb(100%, 42.10968%, 19.827271%)" offset="0.597656"/><stop stop-opacity="1" stop-color="rgb(100%, 41.618347%, 19.662476%)" offset="0.601562"/><stop stop-opacity="1" stop-color="rgb(100%, 41.125488%, 19.496155%)" offset="0.605469"/><stop stop-opacity="1" stop-color="rgb(100%, 40.634155%, 19.33136%)" offset="0.609375"/><stop stop-opacity="1" stop-color="rgb(100%, 40.141296%, 19.166565%)" offset="0.613281"/><stop stop-opacity="1" stop-color="rgb(100%, 39.649963%, 19.00177%)" offset="0.617188"/><stop stop-opacity="1" stop-color="rgb(100%, 39.157104%, 18.836975%)" offset="0.621094"/><stop stop-opacity="1" stop-color="rgb(100%, 38.665771%, 18.67218%)" offset="0.625"/><stop stop-opacity="1" stop-color="rgb(100%, 38.172913%, 18.507385%)" offset="0.628906"/><stop stop-opacity="1" stop-color="rgb(100%, 37.68158%, 18.34259%)" offset="0.632812"/><stop stop-opacity="1" stop-color="rgb(100%, 37.188721%, 18.177795%)" offset="0.636719"/><stop stop-opacity="1" stop-color="rgb(100%, 36.697388%, 18.013%)" offset="0.640625"/><stop stop-opacity="1" stop-color="rgb(100%, 36.204529%, 17.848206%)" offset="0.644531"/><stop stop-opacity="1" stop-color="rgb(100%, 35.713196%, 17.683411%)" offset="0.648438"/><stop stop-opacity="1" stop-color="rgb(100%, 35.220337%, 17.518616%)" offset="0.652344"/><stop stop-opacity="1" stop-color="rgb(100%, 34.727478%, 17.353821%)" offset="0.65625"/><stop stop-opacity="1" stop-color="rgb(100%, 34.234619%, 17.1875%)" offset="0.660156"/><stop stop-opacity="1" stop-color="rgb(100%, 33.743286%, 17.022705%)" offset="0.664062"/><stop stop-opacity="1" stop-color="rgb(100%, 33.250427%, 16.85791%)" offset="0.667969"/><stop stop-opacity="1" stop-color="rgb(100%, 32.759094%, 16.693115%)" offset="0.671875"/><stop stop-opacity="1" stop-color="rgb(100%, 32.266235%, 16.52832%)" offset="0.675781"/><stop stop-opacity="1" stop-color="rgb(100%, 31.774902%, 16.363525%)" offset="0.679688"/><stop stop-opacity="1" stop-color="rgb(100%, 31.282043%, 16.19873%)" offset="0.683594"/><stop stop-opacity="1" stop-color="rgb(100%, 30.79071%, 16.033936%)" offset="0.6875"/><stop stop-opacity="1" stop-color="rgb(100%, 30.297852%, 15.869141%)" offset="0.691406"/><stop stop-opacity="1" stop-color="rgb(100%, 29.806519%, 15.704346%)" offset="0.695312"/><stop stop-opacity="1" stop-color="rgb(100%, 29.31366%, 15.539551%)" offset="0.699219"/><stop stop-opacity="1" stop-color="rgb(100%, 28.822327%, 15.374756%)" offset="0.703125"/><stop stop-opacity="1" stop-color="rgb(100%, 28.329468%, 15.209961%)" offset="0.707031"/><stop stop-opacity="1" stop-color="rgb(100%, 27.838135%, 15.045166%)" offset="0.710938"/><stop stop-opacity="1" stop-color="rgb(100%, 27.345276%, 14.880371%)" offset="0.714844"/><stop stop-opacity="1" stop-color="rgb(100%, 26.853943%, 14.715576%)" offset="0.71875"/><stop stop-opacity="1" stop-color="rgb(100%, 26.361084%, 14.549255%)" offset="0.722656"/><stop stop-opacity="1" stop-color="rgb(100%, 25.869751%, 14.38446%)" offset="0.726562"/><stop stop-opacity="1" stop-color="rgb(100%, 25.376892%, 14.219666%)" offset="0.730469"/><stop stop-opacity="1" stop-color="rgb(100%, 24.884033%, 14.054871%)" offset="0.734375"/><stop stop-opacity="1" stop-color="rgb(100%, 24.391174%, 13.890076%)" offset="0.738281"/><stop stop-opacity="1" stop-color="rgb(100%, 23.899841%, 13.725281%)" offset="0.742188"/><stop stop-opacity="1" stop-color="rgb(100%, 23.406982%, 13.560486%)" offset="0.746094"/><stop stop-opacity="1" stop-color="rgb(100%, 22.915649%, 13.395691%)" offset="0.75"/><stop stop-opacity="1" stop-color="rgb(100%, 22.422791%, 13.230896%)" offset="0.753906"/><stop stop-opacity="1" stop-color="rgb(100%, 21.931458%, 13.066101%)" offset="0.757812"/><stop stop-opacity="1" stop-color="rgb(100%, 21.438599%, 12.901306%)" offset="0.761719"/><stop stop-opacity="1" stop-color="rgb(100%, 20.947266%, 12.736511%)" offset="0.765625"/><stop stop-opacity="1" stop-color="rgb(100%, 20.454407%, 12.571716%)" offset="0.769531"/><stop stop-opacity="1" stop-color="rgb(100%, 19.963074%, 12.406921%)" offset="0.773438"/><stop stop-opacity="1" stop-color="rgb(100%, 19.470215%, 12.242126%)" offset="0.777344"/><stop stop-opacity="1" stop-color="rgb(100%, 18.978882%, 12.077332%)" offset="0.78125"/><stop stop-opacity="1" stop-color="rgb(100%, 18.486023%, 11.911011%)" offset="0.785156"/><stop stop-opacity="1" stop-color="rgb(100%, 17.99469%, 11.746216%)" offset="0.789062"/><stop stop-opacity="1" stop-color="rgb(100%, 17.501831%, 11.581421%)" offset="0.792969"/><stop stop-opacity="1" stop-color="rgb(100%, 17.010498%, 11.416626%)" offset="0.796875"/><stop stop-opacity="1" stop-color="rgb(100%, 16.517639%, 11.251831%)" offset="0.800781"/><stop stop-opacity="1" stop-color="rgb(100%, 16.026306%, 11.087036%)" offset="0.804688"/><stop stop-opacity="1" stop-color="rgb(100%, 15.533447%, 10.922241%)" offset="0.808594"/><stop stop-opacity="1" stop-color="rgb(100%, 15.042114%, 10.757446%)" offset="0.8125"/><stop stop-opacity="1" stop-color="rgb(100%, 14.549255%, 10.592651%)" offset="0.816406"/><stop stop-opacity="1" stop-color="rgb(100%, 14.056396%, 10.427856%)" offset="0.820312"/><stop stop-opacity="1" stop-color="rgb(100%, 13.563538%, 10.263062%)" offset="0.824219"/><stop stop-opacity="1" stop-color="rgb(100%, 13.072205%, 10.098267%)" offset="0.828125"/><stop stop-opacity="1" stop-color="rgb(100%, 12.579346%, 9.933472%)" offset="0.832031"/><stop stop-opacity="1" stop-color="rgb(100%, 12.088013%, 9.768677%)" offset="0.835938"/><stop stop-opacity="1" stop-color="rgb(100%, 11.595154%, 9.603882%)" offset="0.839844"/><stop stop-opacity="1" stop-color="rgb(100%, 11.103821%, 9.439087%)" offset="0.84375"/><stop stop-opacity="1" stop-color="rgb(100%, 10.610962%, 9.272766%)" offset="0.847656"/><stop stop-opacity="1" stop-color="rgb(100%, 10.119629%, 9.107971%)" offset="0.851562"/><stop stop-opacity="1" stop-color="rgb(100%, 9.62677%, 8.943176%)" offset="0.855469"/><stop stop-opacity="1" stop-color="rgb(100%, 9.135437%, 8.778381%)" offset="0.859375"/><stop stop-opacity="1" stop-color="rgb(100%, 8.866882%, 8.688354%)" offset="0.863281"/><stop stop-opacity="1" stop-color="rgb(100%, 8.599854%, 8.599854%)" offset="0.867188"/><stop stop-opacity="1" stop-color="rgb(100%, 8.599854%, 8.599854%)" offset="0.875"/><stop stop-opacity="1" stop-color="rgb(100%, 8.599854%, 8.599854%)" offset="1"/></linearGradient></defs><g clip-path="url(#cec55a99f2)"><g clip-path="url(#34b6ab0a3c)"><path fill="url(#a100a9724a)" d="M 17.476562 62.007812 L 17.476562 312.957031 L 357.226562 312.957031 L 357.226562 62.007812 Z M 17.476562 62.007812 " fill-rule="nonzero"/></g></g></svg>